# xmcd
#
# Track frame offsets:
#	150
#	14250
#	31240
#	43807
#	60967
#	72145
#	89062
#	105715
#	118725
#	135292
#
# Disc length: 2085 seconds
#
# Revision: 5
# Processed by: cddbd v1.5.1PL0 Copyright (c) Steve Scherf et al.
# Submitted via: EasyCDDAExtractor 7.0.5.4
#
DISCID=7f08230a
DTITLE=Ricky Skaggs - Favorite Country Songs
DYEAR=1985
DGENRE=Country
TTITLE0=If That's The Way You Feel
TTITLE1=Sweet Temptation
TTITLE2=I'll Take The Blame
TTITLE3=Waitin' For The Sun To Shine
TTITLE4=You May See Me Walkin'
TTITLE5=Can't You Hear Me Callin'
TTITLE6=Your Old Love Letters
TTITLE7=Lost To A Stranger
TTITLE8=A Wound Time Can't Erase
TTITLE9=Nothing Can Hurt You
EXTD=YEAR: 1985
EXTT0=
EXTT1=
EXTT2=
EXTT3=
EXTT4=
EXTT5=
EXTT6=
EXTT7=
EXTT8=
EXTT9=
PLAYORDER=
